<?xml version="1.0" standalone="no"?>
<!DOCTYPE svg PUBLIC "-//W3C//DTD SVG 20010904//EN"
 "http://www.w3.org/TR/2001/REC-SVG-20010904/DTD/svg10.dtd">
<svg version="1.0" xmlns="http://www.w3.org/2000/svg"
 width="512.000000pt" height="512.000000pt" viewBox="0 0 512.000000 512.000000"
 preserveAspectRatio="xMidYMid meet">
<metadata>
Created by potrace 1.10, written by Peter Selinger 2001-2011
</metadata>
<g transform="translate(0.000000,512.000000) scale(0.100000,-0.100000)"
fill="#000000" stroke="none">
<path d="M2120 4849 c-56 -25 -96 -62 -122 -113 -20 -39 -45 -184 -67 -391
-19 -166 -16 -160 -69 -194 -26 -17 -64 -46 -86 -64 l-39 -33 -66 14 c-86 18
-332 11 -415 -12 -446 -124 -790 -513 -942 -1064 -51 -189 -67 -309 -67 -532
-1 -222 11 -329 58 -515 120 -475 401 -855 757 -1025 135 -64 244 -91 389 -97
175 -8 335 24 468 92 28 14 52 21 56 16 3 -5 36 -20 73 -33 57 -19 87 -23 197
-23 118 0 137 3 208 29 l78 28 67 -30 c130 -60 219 -77 397 -77 137 0 172 3
245 24 506 140 881 633 984 1293 88 561 -72 1159 -414 1547 -173 196 -417 340
-644 380 -82 15 -278 13 -353 -2 l-61 -13 -52 43 c-29 24 -76 57 -104 74 l-52
31 -22 168 -22 167 40 41 40 40 0 82 c0 91 -14 126 -60 154 -23 13 -58 16
-192 16 -142 0 -169 -3 -208 -21z m60 -19 c0 -9 -71 -33 -78 -25 -4 4 55 32
71 34 4 1 7 -3 7 -9z m320 1 c43 -12 62 -115 37 -206 -3 -11 -6 -23 -6 -27 -1
-5 -7 -8 -15 -8 -8 0 -17 -7 -20 -16 -3 -8 -10 -12 -16 -9 -5 3 -7 0 -4 -8 3
-8 1 -18 -4 -21 -6 -3 -8 -16 -5 -29 4 -15 2 -19 -5 -12 -5 6 -12 19 -14 30
-2 14 -14 21 -41 26 -21 3 -40 2 -43 -3 -3 -5 -12 -4 -19 2 -10 8 -14 7 -18
-2 -2 -7 -8 -10 -12 -5 -14 12 3 21 58 28 84 12 111 20 135 42 19 18 22 31 22
92 0 62 -3 76 -24 98 -24 26 -26 26 -166 26 -78 0 -144 2 -148 5 -8 8 278 5
308 -3z m-423 -64 c-12 -13 -27 -32 -34 -43 -10 -16 -12 -17 -12 -2 -1 20 48
80 59 73 5 -3 -1 -16 -13 -28z m417 17 c21 -21 22 -136 1 -157 -8 -8 -58 -23
-112 -32 -128 -22 -125 -20 -121 -52 3 -25 7 -28 38 -28 19 1 59 5 89 9 30 5
51 4 48 0 -3 -5 3 -67 14 -139 24 -169 25 -157 -13 -140 -18 7 -69 18 -112 25
-91 14 -205 2 -290 -31 -27 -10 -51 -18 -52 -16 -5 6 58 436 68 461 17 42 58
87 93 102 20 9 78 13 182 14 125 0 154 -3 167 -16z m-473 -125 l-10 -34 2 42
c1 23 6 38 10 34 5 -5 4 -24 -2 -42z m-15 -96 c-4 -32 -15 -119 -25 -193 -10
-74 -16 -141 -13 -148 6 -16 38 -13 122 12 73 21 217 22 309 1 50 -12 76 -14
83 -7 10 10 7 41 -18 217 -4 29 -3 37 5 30 6 -6 14 -46 17 -88 4 -43 14 -106
23 -140 16 -61 17 -62 98 -117 45 -30 95 -67 111 -83 15 -15 30 -25 33 -23 2
2 22 6 44 9 22 3 48 9 58 12 9 4 17 3 17 -3 0 -5 -15 -13 -34 -16 -53 -10 -54
-44 -4 -97 30 -33 79 -110 76 -121 -2 -6 -27 18 -55 53 -66 83 -147 166 -203
210 -97 75 -199 132 -244 136 -17 2 -32 7 -35 11 -6 8 -67 15 -135 14 -54 0
-181 -25 -203 -40 -13 -8 -23 -11 -23 -7 0 4 -7 1 -16 -6 -18 -15 -33 -24 -93
-57 -59 -32 -193 -163 -259 -252 -31 -41 -57 -69 -59 -63 -3 7 9 32 26 55 17
24 45 63 63 87 l31 44 -23 19 c-14 11 -40 18 -69 19 -47 1 -108 15 -81 19 19
2 88 -1 111 -5 107 -21 101 -22 192 49 46 36 90 72 96 80 7 9 19 57 26 108 7
51 16 104 19 118 7 34 20 158 19 193 0 15 4 27 10 27 6 0 7 -21 3 -57z m316
-362 c69 -12 158 -47 235 -92 73 -44 219 -182 284 -270 28 -38 56 -69 63 -69
16 0 36 21 36 38 0 17 -52 93 -98 144 -19 21 -32 42 -28 45 13 13 273 16 342
3 272 -47 541 -239 728 -519 319 -479 384 -1175 164 -1740 -166 -425 -455
-718 -813 -822 -69 -20 -102 -24 -235 -24 -161 0 -212 8 -343 56 l-57 21 47
34 c134 95 279 276 378 472 50 100 53 125 15 130 -22 2 -30 -7 -67 -80 -127
-250 -299 -435 -493 -531 l-105 -52 -125 0 c-137 0 -182 13 -308 86 -84 50
-275 246 -347 357 -45 69 -65 92 -81 92 -50 0 -34 -51 59 -189 60 -90 182
-219 259 -277 l57 -42 -57 -21 c-130 -48 -181 -56 -342 -56 -133 0 -166 4
-235 24 -299 87 -551 308 -733 641 -82 151 -164 411 -193 610 -16 109 -16 449
0 560 78 548 368 999 765 1190 153 73 211 85 408 85 91 0 170 -3 174 -7 4 -4
-9 -25 -28 -46 -46 -51 -98 -127 -98 -144 0 -17 20 -38 36 -38 7 0 33 29 59
65 137 193 312 322 486 359 78 17 117 19 191 7z m-842 -151 c0 -5 -15 -10 -32
-10 -25 0 -29 3 -18 10 20 13 50 13 50 0z m1464 1 c3 -5 -8 -11 -25 -13 -35
-5 -50 8 -17 15 13 2 26 5 30 6 4 0 9 -3 12 -8z m96 -1 c0 -5 -19 -9 -42 -9
l-43 2 40 7 c22 4 41 8 43 9 1 0 2 -3 2 -9z m-1635 -10 c-3 -5 -21 -10 -38
-10 -18 0 -63 -8 -100 -19 -37 -10 -67 -15 -67 -10 0 5 12 11 28 14 15 4 36 8
47 11 11 3 34 7 50 10 17 3 32 8 34 10 9 9 52 3 46 -6z m1810 -12 c107 -28
255 -92 312 -134 17 -13 35 -24 40 -24 4 0 19 -10 33 -23 14 -12 51 -44 82
-71 110 -92 242 -264 322 -419 68 -131 146 -338 146 -387 0 -8 7 -34 15 -58 9
-24 18 -60 21 -80 3 -20 7 -48 10 -62 9 -57 13 -184 5 -160 -5 14 -10 43 -10
65 -1 33 -10 90 -35 215 -33 166 -121 391 -212 541 -19 31 -34 62 -34 68 0 6
-4 11 -9 11 -5 0 -25 23 -45 50 -112 155 -248 277 -406 361 -36 19 -68 39 -72
44 -4 6 -8 7 -8 2 0 -4 -17 0 -37 9 -62 27 -175 54 -225 54 -26 0 -50 5 -53
11 -8 12 98 4 160 -13z m-2035 -37 c0 -4 -21 -16 -47 -26 -153 -57 -319 -184
-467 -358 -47 -56 -169 -254 -201 -327 -11 -25 -22 -47 -25 -50 -3 -3 -6 -9
-7 -15 -1 -5 -17 -55 -37 -110 -42 -122 -83 -296 -92 -389 -3 -38 -9 -64 -13
-57 -16 26 47 372 69 379 6 2 7 8 4 13 -3 6 0 16 6 24 7 8 10 15 7 15 -11 0
33 115 84 218 27 56 55 102 61 102 6 0 9 3 5 6 -7 7 64 123 106 174 87 105
141 159 222 223 95 76 115 90 155 109 14 7 33 18 43 26 9 9 17 13 17 9 0 -3
21 6 48 19 51 26 62 29 62 15z m-890 -1523 c1 -189 5 -261 13 -275 3 -5 7 -35
8 -66 1 -31 5 -57 9 -57 4 0 15 -37 24 -82 41 -190 187 -522 272 -621 11 -12
34 -43 52 -69 37 -55 214 -223 257 -245 17 -9 37 -22 46 -29 63 -55 266 -131
397 -149 28 -4 52 -11 52 -16 0 -12 -9 -11 -89 2 -120 20 -252 73 -383 155
-162 102 -345 307 -452 509 -23 44 -42 82 -42 85 -1 3 -10 23 -22 45 -64 126
-123 350 -147 560 -18 154 -18 425 1 425 1 0 3 -78 4 -172z m3926 -78 c-5
-149 -17 -253 -27 -243 -5 5 -4 51 2 103 6 52 11 145 10 205 0 83 2 103 9 80
5 -16 8 -82 6 -145z m-31 -319 c-4 -31 -10 -60 -13 -66 -4 -5 -8 -19 -9 -30
-6 -37 -55 -200 -72 -240 -10 -22 -31 -70 -46 -107 -15 -38 -32 -68 -37 -68
-4 0 -8 -6 -8 -13 0 -19 -91 -167 -145 -236 -128 -164 -284 -294 -442 -367
-179 -82 -308 -105 -523 -90 -100 6 -230 44 -338 98 -18 9 -30 9 -55 -1 -143
-60 -303 -67 -446 -21 -84 27 -95 28 -124 15 -144 -62 -286 -95 -407 -95 -50
0 -90 3 -90 8 0 4 26 7 58 7 58 -1 146 9 192 20 14 3 41 9 60 12 66 12 160 60
160 83 0 3 -28 29 -62 57 -128 104 -202 189 -290 335 -65 106 -44 119 23 15
76 -117 163 -217 264 -302 19 -16 42 -35 49 -42 24 -21 189 -101 236 -113 60
-17 183 -17 250 0 96 23 261 119 335 194 123 126 232 276 291 401 15 30 30 55
35 55 48 0 -145 -321 -267 -445 -43 -44 -101 -95 -108 -95 -14 0 -67 -62 -63
-73 12 -31 162 -78 310 -97 75 -10 188 -4 285 15 12 3 33 7 47 9 47 8 101 29
180 71 151 79 189 108 320 240 194 196 336 470 414 796 12 48 21 99 21 113 0
17 4 25 11 20 7 -4 9 -25 4 -63z"/>
<path d="M1066 3184 c-13 -12 -15 -28 -10 -72 19 -167 121 -317 266 -390 293
-149 630 6 713 326 18 68 19 124 3 140 -9 9 -130 12 -484 12 -416 0 -474 -2
-488 -16z m960 -29 c4 -8 3 -23 -1 -32 -4 -10 -9 -36 -11 -58 -3 -22 -9 -41
-14 -43 -6 -2 -10 -15 -10 -28 0 -13 -5 -24 -12 -24 -6 0 -9 -3 -5 -6 12 -12
-44 -96 -96 -146 -50 -48 -107 -86 -107 -72 0 4 -9 -1 -19 -10 -11 -10 -25
-15 -30 -11 -6 3 -11 2 -11 -3 0 -26 -194 -41 -265 -20 -22 6 -42 12 -45 13
-25 5 -100 40 -100 46 0 5 -6 9 -14 9 -22 0 -129 121 -159 181 -30 60 -34 76
-44 162 l-6 57 472 0 c410 0 472 -2 477 -15z"/>
<path d="M1367 3152 c-42 -2 -69 -8 -72 -15 -8 -27 -13 -100 -6 -88 6 8 10 2
15 -19 3 -18 3 -36 0 -41 -3 -5 0 -8 8 -7 8 2 13 -6 12 -19 0 -12 4 -21 10
-20 6 1 10 -6 10 -16 -1 -10 1 -16 4 -13 8 9 42 -46 35 -57 -3 -6 -1 -7 5 -3
5 3 28 -11 49 -32 21 -21 41 -39 45 -40 33 -11 107 -50 102 -54 -15 -16 107 1
145 20 24 12 48 19 54 15 6 -3 7 -1 3 5 -4 7 -2 12 3 12 6 0 13 0 16 0 2 1 30
27 63 60 69 70 94 114 118 208 27 106 42 101 -279 104 -150 2 -303 2 -340 0z
m613 -36 c0 -28 -38 -136 -64 -179 -52 -90 -192 -188 -269 -190 -42 -1 -148
50 -198 95 -56 52 -98 116 -119 186 -35 113 -69 102 315 102 282 0 335 -2 335
-14z"/>
<path d="M1115 3128 c-17 -43 29 -164 93 -245 46 -57 125 -115 192 -138 62
-22 60 -12 -2 14 -136 55 -247 190 -273 334 l-7 37 60 0 59 0 7 -42 c11 -71
37 -140 73 -195 37 -56 115 -133 135 -133 12 0 -30 39 -42 40 -10 0 -87 106
-109 148 -12 24 -30 76 -40 115 l-17 72 -62 3 c-44 2 -64 -1 -67 -10z"/>
<path d="M2422 3188 c-30 -30 3 -190 58 -282 100 -167 314 -268 497 -236 238
41 399 212 427 452 10 83 39 78 -498 78 -354 0 -475 -3 -484 -12z m958 -59 c0
-49 -41 -175 -74 -227 -71 -113 -224 -200 -368 -210 -78 -5 -188 12 -188 29 0
5 -6 6 -14 3 -7 -3 -20 1 -27 8 -8 7 -21 13 -29 13 -8 0 -14 6 -12 13 1 8 -2
11 -7 8 -24 -15 -164 129 -172 179 -2 11 -9 26 -16 33 -7 7 -10 19 -7 27 4 8
2 15 -4 15 -5 0 -12 21 -16 48 -3 26 -9 59 -12 75 l-6 27 476 0 476 0 0 -41z"/>
<path d="M2465 3130 c-30 -95 98 -298 230 -365 33 -16 61 -33 63 -37 2 -4 9
-5 17 -2 7 3 16 1 19 -5 5 -7 15 -7 33 0 15 5 33 7 40 5 8 -3 11 -1 8 4 -3 6
-1 10 6 10 26 0 158 86 179 117 12 18 27 30 33 26 6 -4 7 -1 2 7 -4 7 -3 15 2
19 5 3 17 23 26 43 48 103 61 181 31 192 -9 3 -166 6 -349 6 -324 0 -334 -1
-340 -20z m681 -42 c-11 -68 -61 -164 -117 -223 -59 -63 -162 -119 -215 -118
-81 2 -209 92 -273 192 -26 41 -61 142 -61 178 0 10 68 13 336 13 l337 0 -7
-42z"/>
<path d="M3206 3125 c-3 -9 -6 -29 -6 -44 0 -15 -3 -31 -7 -35 -4 -3 -8 -17
-10 -29 -8 -54 -59 -135 -127 -201 -51 -49 -62 -64 -40 -53 80 41 174 188 196
305 l12 62 58 0 c32 0 58 -1 58 -3 0 -1 -9 -35 -20 -76 -23 -82 -79 -172 -137
-221 -21 -17 -69 -46 -108 -65 -38 -19 -63 -35 -55 -35 25 0 112 46 165 87 66
51 117 126 144 213 32 100 30 104 -50 108 -54 2 -68 0 -73 -13z"/>
<path d="M3202 2438 c-5 -7 -13 -44 -16 -83 -14 -144 -38 -296 -60 -389 -22
-90 -22 -96 -6 -111 24 -22 45 -10 58 33 28 93 60 285 77 465 5 47 3 72 -5 82
-15 18 -34 19 -48 3z m18 -203 c-6 -55 -14 -107 -17 -115 -3 -8 -7 -25 -9 -36
-14 -107 -38 -197 -53 -202 -11 -4 -12 1 -7 19 35 128 76 375 76 464 0 23 3
45 8 49 13 14 14 -77 2 -179z"/>
<path d="M330 2433 c0 -29 66 -266 95 -342 82 -217 164 -350 290 -476 121
-121 248 -188 410 -216 81 -14 304 -7 331 11 16 10 15 10 -11 6 -16 -3 -77 -9
-135 -12 -234 -15 -419 55 -586 221 -162 161 -274 378 -354 685 -30 117 -40
148 -40 123z"/>
<path d="M4126 2338 c-51 -191 -143 -398 -239 -537 -46 -67 -155 -174 -219
-215 -123 -78 -255 -108 -389 -87 -45 7 -109 21 -143 31 -46 15 -56 15 -41 4
63 -47 280 -69 400 -40 33 8 64 12 70 9 5 -4 7 -2 2 2 -4 5 19 22 50 38 67 34
163 108 211 163 136 154 273 442 321 673 19 91 5 67 -23 -41z"/>
<path d="M2093 2355 c-218 -47 -378 -260 -386 -513 -2 -61 0 -67 19 -70 12 -2
76 19 143 46 l121 49 120 -48 c66 -27 127 -49 135 -49 8 0 69 22 135 49 l120
48 121 -49 c67 -27 131 -48 143 -46 19 3 21 9 19 75 -2 85 -48 233 -95 305
-39 62 -124 139 -184 167 -103 49 -281 64 -411 36z m202 -19 c44 -3 93 -5 108
-5 19 -1 26 -5 21 -13 -5 -7 -2 -9 9 -5 26 10 131 -49 180 -102 41 -44 95
-131 81 -131 -3 0 2 -7 10 -16 33 -32 75 -249 53 -271 -4 -3 -42 11 -102 36
-157 67 -145 65 -221 36 -38 -14 -97 -38 -131 -51 l-61 -25 -59 27 c-32 15
-65 29 -74 30 -9 2 -37 13 -63 24 -57 24 -67 22 -200 -36 -54 -24 -102 -44
-107 -44 -12 0 -11 64 2 136 13 74 30 124 43 124 5 0 7 3 3 6 -11 11 43 105
89 154 48 51 165 117 185 104 8 -4 9 -3 5 4 -7 12 36 18 97 13 15 -1 27 2 27
8 0 6 6 8 13 6 6 -3 48 -7 92 -9z"/>
<path d="M2087 2304 c-33 -8 -64 -11 -70 -7 -6 3 -7 1 -3 -5 4 -7 -7 -17 -27
-26 -19 -8 -38 -19 -41 -25 -4 -6 -13 -8 -19 -5 -7 4 -9 4 -6 0 4 -4 -3 -17
-15 -29 -46 -48 -86 -101 -86 -114 0 -8 -4 -12 -9 -9 -4 3 -6 -6 -3 -19 2 -14
9 -28 14 -31 11 -7 71 9 125 32 38 17 44 17 80 2 15 -6 34 -12 41 -14 8 -1 49
-17 93 -34 86 -35 96 -35 182 4 28 13 63 27 77 29 14 3 41 10 62 15 25 7 44 6
65 -3 52 -23 111 -38 122 -30 44 26 -77 194 -166 231 -18 8 -33 19 -33 25 0 5
-3 8 -7 6 -5 -3 -37 1 -73 9 -83 17 -228 16 -303 -2z m285 -15 c79 -17 132
-43 184 -91 39 -36 114 -135 114 -152 0 -2 -36 11 -79 30 -43 19 -83 34 -89
34 -5 0 -66 -23 -134 -50 l-125 -50 -122 50 c-67 27 -127 50 -134 50 -7 0 -47
-15 -89 -34 -43 -19 -78 -32 -78 -29 0 17 76 117 119 155 47 42 111 72 196 91
41 9 186 7 237 -4z"/>
<path d="M1876 2010 c-92 -39 -106 -50 -106 -87 0 -12 -4 -23 -8 -25 -5 -1 -5
-14 -2 -28 6 -22 8 -19 14 20 5 25 12 51 16 58 4 8 51 31 104 52 l97 38 126
-50 126 -50 46 17 c25 10 82 33 127 51 l81 34 99 -39 99 -40 17 -53 c17 -58
24 -37 8 24 -11 40 -10 38 -138 92 -75 31 -89 32 -137 9 -32 -15 -38 -15 -47
-3 -8 13 -9 12 -5 -2 5 -13 -10 -22 -64 -42 -39 -14 -77 -26 -86 -26 -17 0
-116 37 -190 71 -57 26 -73 24 -177 -21z"/>
<path d="M1878 1898 c-54 -22 -98 -44 -98 -49 0 -9 17 -3 97 32 24 11 49 19
57 19 8 0 18 5 21 10 8 13 50 13 73 0 48 -26 196 -80 220 -80 16 0 94 29 189
71 46 20 83 24 99 10 5 -4 23 -13 39 -19 17 -6 54 -20 83 -31 28 -12 52 -17
52 -13 0 4 -48 27 -106 51 l-105 43 -72 -30 c-40 -17 -97 -40 -128 -52 l-55
-22 -115 47 c-62 26 -123 48 -134 50 -11 2 -64 -15 -117 -37z"/>
<path d="M1275 2166 c-15 -11 -16 -20 -6 -82 11 -74 52 -241 70 -286 11 -30
41 -37 60 -14 9 11 6 34 -14 102 -14 49 -33 131 -42 182 -18 100 -34 123 -68
98z m49 -128 c9 -48 26 -117 38 -154 14 -45 17 -69 10 -76 -7 -7 -15 6 -26 43
-20 65 -56 243 -56 272 0 44 18 -1 34 -85z"/>
<path d="M2865 1479 c-223 -181 -350 -244 -537 -269 -203 -27 -428 28 -665
164 -72 41 -84 40 -20 -1 44 -28 227 -123 227 -118 0 2 24 -5 53 -16 28 -11
66 -22 82 -24 107 -18 142 -22 207 -24 63 -2 138 6 225 23 39 8 167 65 228
103 100 61 329 244 304 243 -2 0 -49 -37 -104 -81z"/>
</g>
</svg>
